<?xml version="1.0" standalone="no"?>
<!DOCTYPE svg PUBLIC "-//W3C//DTD SVG 20010904//EN"
 "http://www.w3.org/TR/2001/REC-SVG-20010904/DTD/svg10.dtd">
<svg version="1.0" xmlns="http://www.w3.org/2000/svg"
 width="128.000000pt" height="128.000000pt" viewBox="0 0 128.000000 128.000000"
 preserveAspectRatio="xMidYMid meet">

<g transform="translate(0.000000,128.000000) scale(0.100000,-0.100000)"
fill="#000000" stroke="none">
<path d="M587 1134 c-4 -4 -15 -8 -25 -10 -9 -1 -27 -5 -39 -9 -12 -4 -24 -6
-25 -4 -3 3 -44 -30 -74 -59 -14 -14 -19 -97 -8 -126 5 -13 25 -16 118 -16 62
0 116 -3 119 -7 4 -3 2 -12 -4 -20 -9 -10 -55 -13 -202 -13 -181 0 -192 -1
-223 -22 -18 -13 -36 -32 -40 -43 -10 -31 -11 -35 -14 -37 -16 -21 -17 -253 0
-253 1 0 3 -9 5 -19 2 -10 10 -23 17 -27 7 -5 9 -9 4 -9 -6 0 5 -11 24 -25 28
-21 45 -25 98 -25 l63 0 -1 73 c-2 79 3 98 34 131 41 43 104 58 243 56 123 -1
173 4 173 19 0 4 8 16 18 27 26 27 24 10 23 187 0 131 -2 140 -25 167 -13 16
-27 26 -30 23 -3 -4 -6 -1 -6 6 0 7 -3 10 -7 8 -5 -3 -19 0 -33 6 -49 20 -170
34 -183 21z m-41 -84 c20 -25 20 -54 2 -72 -24 -24 -44 -22 -74 7 -23 23 -24
26 -9 49 24 36 61 43 81 16z"/>
</g>
</svg>
